<svg data-v-0dd9719b="" version="1.0" xmlns="http://www.w3.org/2000/svg" xmlns:xlink="http://www.w3.org/1999/xlink" width="100%" height="100%" viewBox="0 0 340.000000 250.000000" preserveAspectRatio="xMidYMid meet" color-interpolation-filters="sRGB" style="margin: auto;"> <rect data-v-0dd9719b="" x="0" y="0" width="100%" height="100%" fill="#fff" fill-opacity="1" class="background"></rect> <rect data-v-0dd9719b="" x="0" y="0" width="100%" height="100%" fill="url(#watermark)" fill-opacity="1" class="watermarklayer"></rect> <g data-v-0dd9719b="" fill="#00adef" class="icon-text-wrapper icon-svg-group iconsvg" transform="translate(81.92500305175781,72.03950881958008)"><g class="iconsvg-imagesvg" transform="translate(58.07499694824219,0)"><g><rect fill="#00adef" fill-opacity="0" stroke-width="2" x="0" y="0" width="60" height="56.10098176718093" class="image-rect"></rect> <svg x="0" y="0" width="60" height="56.10098176718093" filtersec="colorsb9230012933" class="image-svg-svg primary" style="overflow: visible;"><svg xmlns="http://www.w3.org/2000/svg" viewBox="0 -0.000003814697265625 261.59002685546875 244.59002685546875"><g><g><path d="M0 122.27s6.66 0 26.27 19.58a27.71 27.71 0 0 0 42.53-4.09l1.2-1.57a8 8 0 1 1 11.4 11.38 7.38 7.38 0 0 1-4.4 2.24l-.22.05a17.8 17.8 0 1 0 17.87 17.87v-.23a7.36 7.36 0 0 1 2.35-4.34 8 8 0 1 1 11.37 11.38l-1.56 1.21a28.23 28.23 0 0 0-4.08 3.36 27.69 27.69 0 0 0 0 39.17c19.6 19.61 19.56 26.27 19.56 26.27s0-6.66 19.57-26.27a27.74 27.74 0 0 0-4.08-42.53l-1.57-1.21c-32.22-23.71-13.92-38.9-13.92-38.9a32.17 32.17 0 0 0-22.82 9.45 32.17 32.17 0 0 0 9.45-22.82z" fill="#00adef"></path><path d="M152.68 122.27a32.15 32.15 0 0 1 9.45-22.82 32.19 32.19 0 0 1-22.82 9.45s18.3-15.19-13.93-38.9l-1.56-1.21a26.53 26.53 0 0 1-4.08-3.38 27.65 27.65 0 0 1 0-39.14C139.35 6.65 139.31 0 139.31 0s0 6.65 19.57 26.27a27.67 27.67 0 0 1 0 39.14 26 26 0 0 1-4.09 3.38L153.23 70a8.05 8.05 0 0 0 11.39 11.39 7.42 7.42 0 0 0 2.23-4.39v-.23a17.81 17.81 0 1 1 17.88 17.88h-.23a7.44 7.44 0 0 0-4.31 2.35 8.05 8.05 0 1 0 11.39 11.38l1.21-1.56a26.6 26.6 0 0 1 3.38-4.09 27.68 27.68 0 0 1 39.14 0c19.62 19.62 26.28 19.58 26.28 19.58s-6.66 0-26.28 19.58a27.71 27.71 0 0 1-42.52-4.09l-1.21-1.57a8.05 8.05 0 1 0-11.39 11.38 7.38 7.38 0 0 0 4.35 2.24l.23.05a17.8 17.8 0 1 1-17.88 17.87v-.23a7.36 7.36 0 0 0-2.24-4.34 8 8 0 0 0-11.38 11.38l1.56 1.21a27.65 27.65 0 0 1 4.09 42.53c-19.61 19.61-19.56 26.27-19.56 26.27s0-6.66-19.57-26.27a27.74 27.74 0 0 1 4.08-42.53l1.56-1.21c32.23-23.71 13.93-38.9 13.93-38.9a32.19 32.19 0 0 1 22.82 9.45 32.13 32.13 0 0 1-9.45-22.82z" fill="#a2cc39"></path><path d="M108.91 122.27a32.19 32.19 0 0 0-9.45-22.82 32.17 32.17 0 0 0 22.82 9.45S104 93.71 136.2 70l1.57-1.21a26.53 26.53 0 0 0 4.08-3.38 27.65 27.65 0 0 0 0-39.14C122.24 6.65 122.28 0 122.28 0s0 6.65-19.57 26.27a27.65 27.65 0 0 0 0 39.14 26 26 0 0 0 4.09 3.38l1.55 1.21A8.05 8.05 0 1 1 97 81.39 7.42 7.42 0 0 1 94.74 77v-.23a17.8 17.8 0 1 0-17.92 17.92h.22A7.44 7.44 0 0 1 81.4 97 8 8 0 1 1 70 108.35l-1.22-1.56a26.6 26.6 0 0 0-3.38-4.09 27.69 27.69 0 0 0-39.15 0C6.66 122.31 0 122.27 0 122.27z" fill="#00adef"></path></g></g></svg></svg> <!----></g></g> <g transform="translate(0,63.100982666015625)"><g data-gra="path-name" fill-rule="" class="tp-name iconsvg-namesvg"><g transform="scale(1)"><g><path d="M21.54-39.18L21.54-39.18Q25.13-39.18 27.43-38.12 29.74-37.06 31.53-35.65L31.53-35.65Q32.61-34.84 33.18-35.46 33.75-36.09 33.97-38.42L33.97-38.42 35.22-38.42Q35.11-36.3 35.06-33.29 35-30.28 35-25.29L35-25.29 33.75-25.29Q33.48-27.78 33.05-29.55 32.61-31.31 31.85-32.67 31.09-34.02 29.68-35.11L29.68-35.11Q28.33-36.47 26.54-37.12 24.75-37.77 22.79-37.77L22.79-37.77Q19.86-37.77 17.8-36.22 15.74-34.68 14.46-32.02 13.19-29.36 12.59-26.02 11.99-22.68 11.99-19.1L11.99-19.1Q11.99-15.47 12.62-12.13 13.24-8.79 14.57-6.19 15.9-3.58 18.02-2.06 20.13-0.54 23.01-0.54L23.01-0.54Q24.8-0.54 26.62-1.22 28.44-1.9 29.74-3.2L29.74-3.2Q31.85-4.83 32.61-7.24 33.37-9.66 33.75-13.68L33.75-13.68 35-13.68Q35-8.52 35.06-5.35 35.11-2.17 35.22 0L35.22 0 33.97 0Q33.75-2.33 33.24-2.93 32.72-3.53 31.53-2.77L31.53-2.77Q29.52-1.36 27.27-0.3 25.02 0.76 21.49 0.76L21.49 0.76Q15.74 0.76 11.42-1.57 7.11-3.91 4.72-8.3 2.33-12.7 2.33-18.88L2.33-18.88Q2.33-24.96 4.8-29.52 7.27-34.08 11.59-36.63 15.9-39.18 21.54-39.18ZM46.61-42.06L46.61-42.06Q48.89-42.06 50.22-40.94 51.55-39.83 51.55-37.88L51.55-37.88Q51.55-35.92 50.22-34.81 48.89-33.7 46.61-33.7L46.61-33.7Q44.34-33.7 43.01-34.81 41.68-35.92 41.68-37.88L41.68-37.88Q41.68-39.83 43.01-40.94 44.34-42.06 46.61-42.06ZM50.85-28.65L50.85-28.65 50.85-5.05Q50.85-2.77 51.63-1.95 52.42-1.14 54.32-1.14L54.32-1.14 54.32 0Q53.34-0.05 51.28-0.14 49.22-0.22 47.1-0.22L47.1-0.22Q44.99-0.22 42.82-0.14 40.65-0.05 39.56 0L39.56 0 39.56-1.14Q41.46-1.14 42.25-1.95 43.03-2.77 43.03-5.05L43.03-5.05 43.03-22.14Q43.03-24.58 42.3-25.75 41.57-26.92 39.56-26.92L39.56-26.92 39.56-28.06Q41.3-27.89 42.92-27.89L42.92-27.89Q45.2-27.89 47.18-28.08 49.16-28.27 50.85-28.65ZM75.32-28.82L75.32-28.82Q77.06-28.82 78.14-28.08 79.23-27.35 79.74-26.21 80.26-25.07 80.26-23.82L80.26-23.82Q80.26-21.81 79.09-20.54 77.93-19.26 76.03-19.26L76.03-19.26Q74.13-19.26 73.07-20.21 72.01-21.16 72.01-22.74L72.01-22.74Q72.01-24.26 72.69-25.26 73.37-26.26 74.4-26.97L74.4-26.97Q73.64-27.19 72.88-26.92L72.88-26.92Q71.47-26.7 70.36-25.59 69.24-24.47 68.59-22.95 67.94-21.44 67.94-19.97L67.94-19.97 67.94-5.59Q67.94-2.98 69.22-2.06 70.49-1.14 73.04-1.14L73.04-1.14 73.04 0Q71.79-0.05 69.41-0.14 67.02-0.22 64.41-0.22L64.41-0.22Q62.24-0.22 60.02-0.14 57.79-0.05 56.65 0L56.65 0 56.65-1.14Q58.55-1.14 59.34-1.95 60.13-2.77 60.13-5.05L60.13-5.05 60.13-22.14Q60.13-24.58 59.39-25.75 58.66-26.92 56.65-26.92L56.65-26.92 56.65-28.06Q58.39-27.89 60.02-27.89L60.02-27.89Q62.3-27.89 64.28-28.08 66.26-28.27 67.94-28.65L67.94-28.65 67.94-23.61Q68.59-25.07 69.68-26.26 70.76-27.46 72.17-28.14 73.58-28.82 75.32-28.82ZM95.35-28.82L95.35-28.82Q97.46-28.82 99.23-28.35 100.99-27.89 102.13-27.19L102.13-27.19Q103.54-26.32 104.33-25.04 105.11-23.77 105.11-22.09L105.11-22.09Q105.11-20.19 103.92-18.97 102.73-17.74 100.83-17.74L100.83-17.74Q98.93-17.74 97.79-18.83 96.65-19.92 96.65-21.76L96.65-21.76Q96.65-23.5 97.73-24.66 98.82-25.83 100.23-26.21L100.23-26.21Q99.79-26.75 98.93-27.13 98.06-27.51 96.97-27.51L96.97-27.51Q95.29-27.51 94.02-26.54 92.74-25.56 91.87-23.82 91-22.09 90.54-19.75 90.08-17.42 90.08-14.65L90.08-14.65Q90.08-10.47 91.14-8.09 92.2-5.7 93.85-4.72 95.51-3.74 97.3-3.74L97.3-3.74Q98.82-3.74 100.77-4.59 102.73-5.43 104.41-8.14L104.41-8.14 105.33-7.81Q104.73-5.81 103.38-3.8 102.02-1.79 99.85-0.52 97.68 0.76 94.53 0.76L94.53 0.76Q91 0.76 88.15-0.79 85.31-2.33 83.6-5.56 81.89-8.79 81.89-13.89L81.89-13.89Q81.89-18.78 83.65-22.11 85.41-25.45 88.45-27.13 91.49-28.82 95.35-28.82ZM119.17-36.96L119.17-36.96 119.17-28.06 125.57-28.06 125.57-26.97 119.17-26.97 119.17-5.05Q119.17-3.42 119.76-2.74 120.36-2.06 121.56-2.06L121.56-2.06Q122.53-2.06 123.51-2.79 124.49-3.53 125.25-5.32L125.25-5.32 126.17-4.83Q125.3-2.39 123.54-0.81 121.77 0.76 118.73 0.76L118.73 0.76Q116.94 0.76 115.59 0.3 114.23-0.16 113.31-1.09L113.31-1.09Q112.11-2.28 111.73-4.04 111.35-5.81 111.35-8.63L111.35-8.63 111.35-26.97 106.8-26.97 106.8-28.06 111.35-28.06 111.35-35.22Q113.63-35.22 115.56-35.63 117.49-36.03 119.17-36.96ZM141.04-28.82L141.04-28.82Q145.81-28.82 148.53-25.99 151.24-23.17 151.24-16.77L151.24-16.77 133.39-16.77 133.28-17.8 144.4-17.8Q144.46-20.46 144.08-22.71 143.7-24.96 142.88-26.32 142.07-27.68 140.71-27.68L140.71-27.68Q138.81-27.68 137.48-25.29 136.15-22.9 135.88-17.37L135.88-17.37 136.04-17.04Q135.99-16.39 135.96-15.68 135.94-14.98 135.94-14.22L135.94-14.22Q135.94-10.47 136.99-8.14 138.05-5.81 139.68-4.75 141.31-3.69 142.99-3.69L142.99-3.69Q144.62-3.69 146.55-4.5 148.47-5.32 150.15-8.03L150.15-8.03 151.13-7.71Q150.48-5.64 149.07-3.69 147.66-1.74 145.49-0.49 143.32 0.76 140.28 0.76L140.28 0.76Q136.59 0.76 133.77-0.81 130.94-2.39 129.34-5.59 127.74-8.79 127.74-13.73L127.74-13.73Q127.74-18.78 129.45-22.14 131.16-25.5 134.17-27.16 137.18-28.82 141.04-28.82ZM168.5-28.82L168.5-28.82Q170.61-28.82 172.38-28.35 174.14-27.89 175.28-27.19L175.28-27.19Q176.69-26.32 177.48-25.04 178.26-23.77 178.26-22.09L178.26-22.09Q178.26-20.19 177.07-18.97 175.88-17.74 173.98-17.74L173.98-17.74Q172.08-17.74 170.94-18.83 169.8-19.92 169.8-21.76L169.8-21.76Q169.8-23.5 170.88-24.66 171.97-25.83 173.38-26.21L173.38-26.21Q172.95-26.75 172.08-27.13 171.21-27.51 170.12-27.51L170.12-27.51Q168.44-27.51 167.17-26.54 165.89-25.56 165.02-23.82 164.15-22.09 163.69-19.75 163.23-17.42 163.23-14.65L163.23-14.65Q163.23-10.47 164.29-8.09 165.35-5.7 167-4.72 168.66-3.74 170.45-3.74L170.45-3.74Q171.97-3.74 173.92-4.59 175.88-5.43 177.56-8.14L177.56-8.14 178.48-7.81Q177.88-5.81 176.53-3.8 175.17-1.79 173-0.52 170.83 0.76 167.68 0.76L167.68 0.76Q164.15 0.76 161.31-0.79 158.46-2.33 156.75-5.56 155.04-8.79 155.04-13.89L155.04-13.89Q155.04-18.78 156.8-22.11 158.56-25.45 161.6-27.13 164.64-28.82 168.5-28.82Z" transform="translate(-2.3299999237060547, 42.060001373291016)"></path></g> <!----> <!----> <!----> <!----> <!----> <!----> <!----></g></g> <!----></g></g><defs v-gra="od"></defs></svg>